REM DIRINDEX 1\6,1\2\7,1\2\8,1\2\9,1\3\10,1\3\11,1\4\12,1\4\13,1\4\14,1\5\15,1\5\16,1\5\17
REM DIRNAME cjc041,folder01,folder02,folder03,folder04,folder05,folder06,folder07,folder08,folder09,folder10,folder11,folder12,folder13,folder14,folder15,folder16
TITLE ""
FILE "3Q_t_0577-0592.mp3" MP3
  TRACK 01 AUDIO
    TITLE "10:cjc041_2762"
    INDEX 01 00:00:00
  TRACK 02 AUDIO
    TITLE "0:"
    INDEX 01 00:01:17
  TRACK 03 AUDIO
    TITLE "11:cjc041_2763"
    INDEX 01 00:01:73
  TRACK 04 AUDIO
    TITLE "0:"
    INDEX 01 00:02:71
  TRACK 05 AUDIO
    TITLE "10:cjc041_2764"
    INDEX 01 00:03:49
  TRACK 06 AUDIO
    TITLE "0:"
    INDEX 01 00:04:74
  TRACK 07 AUDIO
    TITLE "11:cjc041_2765"
    INDEX 01 00:05:54
  TRACK 08 AUDIO
    TITLE "0:"
    INDEX 01 00:08:21
  TRACK 09 AUDIO
    TITLE "10:cjc041_2766"
    INDEX 01 00:08:72
  TRACK 10 AUDIO
    TITLE "0:"
    INDEX 01 00:09:71
  TRACK 11 AUDIO
    TITLE "11:cjc041_2767"
    INDEX 01 00:10:51
  TRACK 12 AUDIO
    TITLE "0:"
    INDEX 01 00:12:50
  TRACK 13 AUDIO
    TITLE "10:cjc041_2768"
    INDEX 01 00:13:35
  TRACK 14 AUDIO
    TITLE "0:"
    INDEX 01 00:14:72
  TRACK 15 AUDIO
    TITLE "11:cjc041_2769"
    INDEX 01 00:15:54
  TRACK 16 AUDIO
    TITLE "0:"
    INDEX 01 00:18:35
  TRACK 17 AUDIO
    TITLE "10:cjc041_2770"
    INDEX 01 00:19:11
  TRACK 18 AUDIO
    TITLE "0:"
    INDEX 01 00:20:51
  TRACK 19 AUDIO
    TITLE "11:cjc041_2771"
    INDEX 01 00:21:23
  TRACK 20 AUDIO
    TITLE "0:"
    INDEX 01 00:22:38
  TRACK 21 AUDIO
    TITLE "10:cjc041_2772"
    INDEX 01 00:23:14
  TRACK 22 AUDIO
    TITLE "0:"
    INDEX 01 00:24:24
  TRACK 23 AUDIO
    TITLE "11:cjc041_2773"
    INDEX 01 00:24:74
  TRACK 24 AUDIO
    TITLE "0:"
    INDEX 01 00:25:66
  TRACK 25 AUDIO
    TITLE "10:cjc041_2774"
    INDEX 01 00:26:48
  TRACK 26 AUDIO
    TITLE "0:"
    INDEX 01 00:27:63
  TRACK 27 AUDIO
    TITLE "11:cjc041_2775"
    INDEX 01 00:28:47
  TRACK 28 AUDIO
    TITLE "0:"
    INDEX 01 00:29:66
  TRACK 29 AUDIO
    TITLE "10:cjc041_2776"
    INDEX 01 00:30:48
  TRACK 30 AUDIO
    TITLE "0:"
    INDEX 01 00:31:59
  TRACK 31 AUDIO
    TITLE "11:cjc041_2777"
    INDEX 01 00:32:37
  TRACK 32 AUDIO
    TITLE "0:"
    INDEX 01 00:33:60
  TRACK 33 AUDIO
    TITLE "10:cjc041_2778"
    INDEX 01 00:34:40
  TRACK 34 AUDIO
    TITLE "0:"
    INDEX 01 00:35:57
  TRACK 35 AUDIO
    TITLE "11:cjc041_2779"
    INDEX 01 00:36:38
  TRACK 36 AUDIO
    TITLE "0:"
    INDEX 01 00:37:42
  TRACK 37 AUDIO
    TITLE "10:cjc041_2780"
    INDEX 01 00:38:20
  TRACK 38 AUDIO
    TITLE "0:"
    INDEX 01 00:39:35
  TRACK 39 AUDIO
    TITLE "11:cjc041_2781"
    INDEX 01 00:40:17
  TRACK 40 AUDIO
    TITLE "0:"
    INDEX 01 00:41:47
  TRACK 41 AUDIO
    TITLE "10:cjc041_2782"
    INDEX 01 00:42:23
  TRACK 42 AUDIO
    TITLE "0:"
    INDEX 01 00:43:48
  TRACK 43 AUDIO
    TITLE "11:cjc041_2783"
    INDEX 01 00:44:28
  TRACK 44 AUDIO
    TITLE "0:"
    INDEX 01 00:45:30
  TRACK 45 AUDIO
    TITLE "10:cjc041_2784"
    INDEX 01 00:46:07
  TRACK 46 AUDIO
    TITLE "0:"
    INDEX 01 00:47:23
  TRACK 47 AUDIO
    TITLE "11:cjc041_2785"
    INDEX 01 00:48:02
  TRACK 48 AUDIO
    TITLE "0:"
    INDEX 01 00:49:29
  TRACK 49 AUDIO
    TITLE "10:cjc041_2786"
    INDEX 01 00:50:07
  TRACK 50 AUDIO
    TITLE "0:"
    INDEX 01 00:51:30
  TRACK 51 AUDIO
    TITLE "11:cjc041_2787"
    INDEX 01 00:52:08
  TRACK 52 AUDIO
    TITLE "0:"
    INDEX 01 00:53:33
  TRACK 53 AUDIO
    TITLE "10:cjc041_2788"
    INDEX 01 00:54:13
  TRACK 54 AUDIO
    TITLE "0:"
    INDEX 01 00:55:30
  TRACK 55 AUDIO
    TITLE "11:cjc041_2789"
    INDEX 01 00:56:08
  TRACK 56 AUDIO
    TITLE "0:"
    INDEX 01 00:57:29
  TRACK 57 AUDIO
    TITLE "10:cjc041_2790"
    INDEX 01 00:58:07
  TRACK 58 AUDIO
    TITLE "0:"
    INDEX 01 00:59:30
  TRACK 59 AUDIO
    TITLE "11:cjc041_2791"
    INDEX 01 01:00:12
  TRACK 60 AUDIO
    TITLE "0:"
    INDEX 01 01:02:44
  TRACK 61 AUDIO
    TITLE "10:cjc041_2792"
    INDEX 01 01:03:29
  TRACK 62 AUDIO
    TITLE "0:"
    INDEX 01 01:04:48
  TRACK 63 AUDIO
    TITLE "11:cjc041_2793"
    INDEX 01 01:05:26
  TRACK 64 AUDIO
    TITLE "0:"
    INDEX 01 01:08:27
